<svg width="135" height="66" viewBox="0 0 135 66" fill="none" xmlns="http://www.w3.org/2000/svg">
<path d="M63.0615 25.4549C62.8906 25.1941 62.5899 25.1093 62.3328 24.9733C62.0908 24.8447 61.8375 24.7374 61.5829 24.6364C61.3021 24.5253 61.0139 24.4317 60.7257 24.3306C60.7469 24.0674 60.9428 24.1273 61.0676 24.1248C61.8599 24.1085 62.651 24.1223 63.4484 24.2945C63.4259 24.0312 63.2125 24.0649 63.0802 24.0162C61.8936 23.5695 60.6608 23.416 59.3993 23.436C59.0486 23.441 58.6868 23.4971 58.2089 23.3299C59.136 22.862 60.0456 22.8233 60.9116 22.5962C60.8492 22.555 60.803 22.5014 60.7506 22.4939C59.6663 22.3467 58.587 22.1757 57.4802 22.268C56.2349 22.3716 54.9908 22.4727 53.7643 22.7272C53.6532 22.7497 53.5247 22.7634 53.4149 22.5912C53.6969 22.308 54.0912 22.2306 54.4418 22.0834C54.7787 21.9424 55.1281 21.8288 55.4787 21.7253C55.858 21.6142 56.2461 21.5306 56.6304 21.432C56.9661 21.3459 57.3429 21.4258 57.8483 21.1388C56.8351 21.0714 56.0489 20.9217 55.2167 20.9903C53.3912 21.1413 51.6904 21.6541 50.0808 22.5039C50.0284 22.5313 49.9672 22.5438 49.9086 22.5538C49.8836 22.5588 49.8362 22.5463 49.83 22.5301C49.81 22.4802 49.7763 22.4016 49.7988 22.3729C49.9797 22.1295 50.1469 21.8675 50.364 21.6604C52.1109 19.9946 54.0837 18.7044 56.4345 18.0568C57.3941 17.7922 58.3673 17.8072 59.3281 18.0493C60.5859 18.3675 61.7152 18.9676 62.7671 19.7138C63.638 20.3315 64.4728 20.9965 65.2277 21.7552C65.3537 21.8825 65.4922 21.9985 65.6232 22.1171C65.8404 21.9586 65.6931 21.8238 65.637 21.714C65.028 20.5162 64.0922 19.6028 63.0291 18.8179C61.7414 17.8658 60.2865 17.2382 58.7716 16.7428C58.5458 16.6692 58.2875 16.6667 58.1165 16.4484C58.1452 16.2213 58.3374 16.2674 58.4647 16.2749C59.5315 16.3348 60.5847 16.4883 61.6178 16.774C61.8375 16.8352 62.0533 17.0086 62.3366 16.8851C62.2056 16.6006 61.9423 16.492 61.7177 16.356C60.5036 15.6261 59.2009 15.1257 57.8033 14.8811C57.2032 14.7763 56.6042 14.6615 55.9903 14.659C55.7794 14.6578 55.5573 14.6653 55.3751 14.5293C55.2965 14.4706 55.2716 14.372 55.339 14.2959C55.3976 14.2298 55.4812 14.1786 55.5636 14.1449C57.2606 13.4462 59.0237 13.1841 60.8467 13.3938C62.0982 13.5373 63.2836 13.9153 64.4279 14.4469C65.3437 14.8711 66.0525 15.5188 66.6277 16.3236C67.4026 17.4079 67.893 18.6145 68.0864 19.9359C68.1525 20.3876 68.1987 20.8431 68.2548 21.2973C68.2661 21.3871 68.291 21.4994 68.3946 21.4944C68.467 21.4907 68.5543 21.4195 68.6005 21.3534C68.9673 20.8293 69.3167 20.2928 69.691 19.7737C70.1028 19.2022 70.6032 18.7081 71.1322 18.2464C71.6426 17.8022 72.2078 17.4528 72.8854 17.3043C73.2797 17.2182 73.6615 17.202 74.0621 17.2682C75.7466 17.5439 77.2651 18.2327 78.7076 19.1099C79.1181 19.3595 79.5424 19.5978 79.8955 19.9384C79.7033 20.1892 79.5324 20.0195 79.3951 19.9659C78.483 19.6115 77.5459 19.3507 76.5838 19.1673C76.0386 19.0637 75.4933 19.0625 74.9442 19.0849C74.6647 19.0962 74.4039 19.1748 74.1569 19.2996C74.0483 19.3545 73.9385 19.4231 73.9622 19.5678C73.9797 19.6689 74.0733 19.7001 74.1656 19.7176C74.495 19.7812 74.8245 19.8423 75.1526 19.9097C75.7803 20.037 76.4067 20.163 77.0318 20.3015C77.2339 20.3465 77.4548 20.3714 77.6357 20.621C77.1865 20.7333 76.7872 20.5286 76.3829 20.5424C75.9574 20.5573 75.5295 20.5199 75.1027 20.5124C74.676 20.5049 74.248 20.4924 73.8225 20.5087C73.407 20.5249 72.979 20.4675 72.5834 20.6222C72.5797 20.8406 72.7294 20.8131 72.8305 20.8468C73.1187 20.9429 73.4095 21.0302 73.6952 21.1338C73.7364 21.1488 73.7788 21.2286 73.7763 21.2761C73.7738 21.3172 73.7089 21.3871 73.6702 21.3884C73.2747 21.4083 72.8792 21.4158 72.4824 21.427C71.4367 21.4582 70.6094 21.9099 69.978 22.7322C69.9269 22.7984 69.8695 22.9144 69.8944 22.9755C69.9543 23.1228 70.0978 23.0579 70.2051 23.0267C70.9076 22.8233 71.6052 22.6 72.3102 22.4078C73.79 22.0035 75.2936 21.8151 76.8321 21.9087C77.8765 21.9723 78.7774 22.3604 79.6072 22.9693C80.3285 23.4984 80.9224 24.1497 81.4527 24.861C82.6531 26.4731 83.4766 28.2612 83.9096 30.2252C83.9558 30.4323 83.9907 30.6457 84.0007 30.8566C84.0057 30.9689 83.982 31.1523 83.9121 31.1873C83.7412 31.2721 83.6451 31.1024 83.564 30.9801C83.0586 30.2177 82.547 29.4616 81.9681 28.7503C81.3691 28.0141 80.7065 27.3416 79.9978 26.7164C79.5161 26.2922 78.9821 25.9366 78.3682 25.7232C78.3233 25.7082 78.2384 25.7319 78.211 25.7681C78.1873 25.798 78.201 25.8941 78.2322 25.9228C78.7001 26.3595 79.1755 26.7863 79.6434 27.2218C80.0702 27.6186 80.4233 28.0778 80.7552 28.5532C81.0185 28.93 81.2319 29.3343 81.3591 29.7785C81.4003 29.9232 81.4502 30.0992 81.3042 30.2015C81.152 30.3088 81.021 30.1928 80.9137 30.0805C80.8089 29.9707 80.7115 29.8521 80.608 29.7411C79.6447 28.7166 78.5953 27.7883 77.4773 26.9385C76.9719 26.5542 76.4491 26.1886 75.8788 25.9128C75.7354 26.0938 75.8763 26.1636 75.9475 26.2398C76.197 26.5068 76.4603 26.7613 76.7111 27.0284C76.9207 27.2517 77.0979 27.5 77.2115 27.787C77.2464 27.8769 77.2502 27.9754 77.1616 28.0316C77.1204 28.0578 77.0355 28.059 76.9931 28.0328C76.786 27.9056 76.5813 27.7733 76.3854 27.6298C75.4022 26.9061 74.384 26.236 73.3059 25.6595C73.2248 25.6159 73.1487 25.566 73.0676 25.5235C72.7357 25.3501 72.4998 25.3139 72.5086 25.4374C72.5235 25.6446 72.6945 25.7444 72.8193 25.8679C73.8487 26.8774 74.7284 28.0004 75.4396 29.2569C76.2831 30.7455 76.7436 32.3452 76.7872 34.0497C76.8022 34.6536 76.6787 35.2613 76.6063 35.8652C76.5926 35.9813 76.5327 36.0973 76.363 36.1472C76.1496 35.9201 76.1321 35.6107 76.0735 35.3187C75.8976 34.4502 75.6393 33.6042 75.3286 32.7757C75.1901 32.4051 75.0241 32.0432 74.8382 31.6939C74.7384 31.5054 74.6872 31.1373 74.4127 31.2434C74.243 31.3095 74.4501 31.6227 74.4813 31.8261C74.5187 32.0657 74.5712 32.304 74.6036 32.5436C74.6098 32.5873 74.5574 32.6659 74.5163 32.6809C74.4713 32.6971 74.379 32.6734 74.3553 32.6359C74.2405 32.4575 74.1369 32.2716 74.0396 32.0819C73.7177 31.4593 73.4045 30.8316 73.0775 30.2115C72.9128 29.9008 72.7332 29.5951 72.4449 29.2956C72.395 29.6387 72.5709 29.8297 72.6595 30.0468C72.8916 30.6133 73.0688 31.1947 73.1724 31.7987C73.1923 31.9185 73.1998 32.0694 73.0813 32.1268C72.9478 32.1917 72.8554 32.0719 72.798 31.9634C72.6146 31.6127 72.4487 31.2521 72.2602 30.9028C71.9271 30.2863 71.5864 29.6737 71.2421 29.0635C71.1847 28.9624 71.0961 28.8788 70.9076 28.6443C70.9638 29.0872 71.1372 29.2981 71.2321 29.5364C71.3107 29.7336 71.3918 29.9307 71.4579 30.1329C71.4729 30.1778 71.4492 30.2626 71.4142 30.2926C71.3331 30.3612 71.2371 30.3225 71.1809 30.2514C71.0112 30.0355 70.8602 29.8059 70.6893 29.5926C70.567 29.4403 70.5059 29.2157 70.2575 29.1721C70.2501 29.4216 70.4223 29.5714 70.5171 29.751C70.9189 30.506 71.2832 31.2746 71.5565 32.0869C71.9446 33.2374 72.0144 34.4153 71.9221 35.6094C71.8747 36.2233 71.675 36.8023 71.4355 37.3651C70.6281 39.2629 69.3616 40.8027 67.7133 42.0256C67.1767 42.4236 66.589 42.7555 66.0176 43.1049C65.8928 43.181 65.7368 43.2184 65.5908 43.2409C65.4922 43.2559 65.4074 43.1548 65.4473 43.0675C65.5234 42.904 65.6295 42.753 65.738 42.6083C66.327 41.8297 66.9135 41.051 67.4014 40.2025C67.8605 39.4064 68.2498 38.5817 68.4994 37.6957C68.5381 37.5585 68.6142 37.4087 68.4645 37.2428C68.2087 37.425 68.0939 37.7157 67.9117 37.949C67.576 38.382 67.2441 38.8175 66.9047 39.2467C66.8798 39.2779 66.7812 39.2867 66.7488 39.263C66.7151 39.238 66.6939 39.1507 66.7113 39.1082C66.9122 38.6316 67.1156 38.1537 67.3315 37.6832C67.8842 36.4791 68.1525 35.1989 68.3646 33.9024C68.3771 33.8251 68.3472 33.7402 68.321 33.5343C68.0764 34.0472 67.8917 34.4577 67.6859 34.8582C67.576 35.0716 67.4313 35.2688 67.2915 35.4659C67.2741 35.4896 67.188 35.4722 67.1356 35.4609C67.1181 35.4572 67.0944 35.4098 67.0981 35.3861C67.1169 35.2675 67.1356 35.1465 67.1693 35.0317C67.3639 34.3579 67.5648 33.6866 67.7582 33.0128C67.7994 32.8705 67.8568 32.7245 67.7707 32.5074C67.596 32.8555 67.4475 33.1687 67.2841 33.4745C67.2267 33.5805 67.1306 33.6903 66.9996 33.6691C66.8673 33.6479 66.8111 33.5194 66.8062 33.3933C66.7924 33.0589 66.7912 32.7233 66.7849 32.3876C66.7675 31.5042 66.8136 30.617 66.589 29.7498C66.5079 29.4378 66.5441 28.9799 66.1386 28.9462C65.8142 28.9188 65.7168 29.343 65.5758 29.5988C64.2869 31.9559 63.1364 34.3816 62.2729 36.9283C61.5779 38.9785 60.8405 41.0123 60.1255 43.055C58.9538 46.3978 58.0379 49.8118 57.5401 53.3255C57.3816 54.4448 57.3878 55.5778 57.4802 56.7033C57.5563 57.6441 58.013 58.127 58.9289 58.3354C59.0773 58.3691 59.2321 58.3803 59.3756 58.429C59.5627 58.4914 59.8485 58.4427 59.8684 58.7347C59.8859 58.9793 59.665 59.0941 59.4941 59.2151C58.9301 59.6144 58.2887 59.8016 57.6087 59.8415C57.0409 59.8739 56.5256 59.6918 56.0851 59.3274C55.3177 58.691 54.8785 57.8837 54.8411 56.878C54.8274 56.5174 54.8386 56.1555 54.8386 55.8024C54.5254 55.7575 54.488 55.9846 54.3944 56.1169C53.7929 56.9678 53.1279 57.7527 52.2856 58.3841C50.9355 59.396 49.4132 59.6968 47.7836 59.4372C46.0454 59.1615 44.9349 57.9648 44.6092 56.2192C44.4033 55.1149 44.5169 54.0343 44.704 52.9512C44.9137 51.7471 45.2631 50.5779 45.6299 49.415C46.144 47.7866 46.6793 46.1657 47.1809 44.5349C47.695 42.8653 48.0269 41.1646 47.9383 39.404C47.9233 39.0995 47.9246 38.79 47.861 38.4943C47.6089 37.3077 46.4709 36.8622 45.4727 37.556C45.0659 37.8392 44.7677 38.2235 44.5244 38.654C43.7757 39.9842 43.5249 41.3892 43.8618 42.8878C43.888 43.0063 43.9179 43.1261 43.9217 43.2471C43.9254 43.4218 43.8231 43.5329 43.6522 43.5553C42.5441 43.6988 41.4448 42.8429 41.315 41.7149C41.2302 40.9774 41.3163 40.2599 41.6058 39.5637C42.4455 37.5447 44.8276 35.6069 47.6813 35.8415C48.1105 35.8764 48.5198 35.9875 48.9166 36.1547C49.4407 36.3768 49.8437 36.7274 50.1157 37.2328C50.4227 37.8043 50.6523 38.4007 50.6872 39.0508C50.7284 39.812 50.7221 40.5719 50.5961 41.3305C50.3553 42.778 49.976 44.1892 49.5554 45.5917C49.0039 47.431 48.4574 49.2727 47.9059 51.112C47.5178 52.4072 47.3069 53.7248 47.3756 55.0799C47.3955 55.4767 47.4367 55.8673 47.5702 56.2479C47.9782 57.4021 48.8642 57.9349 50.0683 57.7277C51.0703 57.5555 51.8888 57.0514 52.5589 56.3015C53.3587 55.4056 53.9626 54.3849 54.4406 53.2894C54.9172 52.1975 55.2853 51.0683 55.5648 49.9091C56.2024 47.2725 56.85 44.6372 57.6187 42.0343C58.9039 37.677 60.7007 33.5581 63.3336 29.8309C63.6505 29.3829 63.9774 28.9425 64.2931 28.4945C64.3692 28.3872 64.2869 28.2437 64.1521 28.2287C63.784 28.1913 63.4234 28.2337 63.064 28.3111C62.0658 28.5232 61.1524 28.9275 60.3139 29.5052C60.0381 29.6949 59.7599 29.8821 59.4779 30.0617C59.4392 30.0855 59.3519 30.0767 59.3157 30.0468C59.2782 30.0156 59.2445 29.9282 59.262 29.8895C59.3631 29.6699 59.4841 29.4578 59.5914 29.2419C59.6663 29.091 59.8672 28.9986 59.7948 28.7403C59.4704 28.8651 59.2246 29.091 58.995 29.3218C58.5433 29.7748 58.1103 30.2452 57.6686 30.7093C57.5638 30.8192 57.4664 30.9364 57.3541 31.0363C57.3229 31.0637 57.2294 31.0637 57.1957 31.0375C57.1595 31.0088 57.1295 30.9215 57.147 30.8815C57.3217 30.4935 57.4951 30.1042 57.6923 29.7273C57.847 29.4316 58.0367 29.1546 58.2164 28.8601C58.0042 28.7366 57.9319 28.9238 57.8408 29.0049C56.2798 30.4049 55.0158 32.032 54.1174 33.9336C54.0013 34.1807 53.8591 34.414 53.7243 34.6524C53.7131 34.6723 53.6744 34.6773 53.647 34.6885C53.4885 33.9935 53.5671 33.7065 54.7587 30.6644C54.5728 30.5097 54.483 30.6969 54.3981 30.7892C53.3837 31.906 52.6088 33.1787 52.0236 34.565C51.7391 35.2376 51.5157 35.9363 51.2562 36.6201C51.2038 36.7586 51.1189 36.8859 51.0353 37.0094C51.0241 37.0257 50.9081 37.0069 50.8906 36.977C50.8494 36.8996 50.8195 36.8073 50.8157 36.72C50.7334 34.6386 50.8045 32.571 51.4321 30.5634C51.8177 29.3305 52.3455 28.1751 53.2814 27.2417C53.9402 26.5829 54.6951 26.0825 55.5661 25.7631C57.0172 25.2315 58.5083 25.0294 60.0556 25.1704C60.9378 25.2503 61.8113 25.3601 62.6772 25.5422C62.7983 25.5734 62.923 25.5984 63.0615 25.4549Z" fill="white"/>
<path d="M106 55.0974C105.61 55.3107 105.491 55.6077 105.305 55.8423C105.001 56.2241 104.715 56.6234 104.34 56.9391C104.084 57.1537 103.821 57.3696 103.53 57.5293C102.424 58.1332 101.365 57.8562 100.671 56.8031C100.399 56.3901 100.228 55.9346 100.131 55.453C100.095 55.2746 100.083 55.0911 100.056 54.9102C100.006 54.5883 99.9163 54.5309 99.6443 54.6494C99.3935 54.7592 99.1489 54.884 98.8931 54.9838C98.258 55.2296 97.6066 55.3744 96.9266 55.1822C96.3925 55.0312 95.9882 55.2147 95.6289 55.6139C95.1572 56.1368 94.6094 56.5772 94.0267 56.9703C93.1483 57.563 92.1999 57.9373 91.1119 57.8737C90.0662 57.8126 89.4835 57.3921 89.1491 56.3963C88.922 55.7225 88.8446 55.0337 88.9619 54.3225C89.1416 53.2282 89.4536 52.185 90.0562 51.2429C90.3033 50.8549 90.5978 50.508 90.9197 50.1811C91.46 49.632 92.0752 49.2852 92.8775 49.4074C93.1657 49.4511 93.3317 49.3251 93.434 49.0568C93.5638 48.7162 93.7023 48.3755 93.8657 48.0498C94.5545 46.671 96.3027 46.2044 97.6565 46.7334C98.0421 46.8832 98.3253 47.1514 98.5212 47.512C98.8344 48.0898 98.9754 48.7037 98.9018 49.3613C98.8057 50.2198 98.5462 51.0308 98.1719 51.8032C97.8936 52.3797 97.5854 52.9412 97.2972 53.5127C97.1399 53.8221 97.226 53.9519 97.5929 53.9606C98.525 53.9831 99.3148 53.6387 100.002 53.0248C100.314 52.7465 100.449 52.3784 100.555 51.9929C100.832 50.9884 101.249 50.0413 101.747 49.1279C101.908 48.8322 102.086 48.5477 102.356 48.3356C102.585 48.1534 102.842 48.0773 103.124 48.1896C103.322 48.2682 103.52 48.3518 103.702 48.4604C104.22 48.7661 104.28 48.9395 103.984 49.4985C103.454 50.4993 103.043 51.5462 102.696 52.623C102.428 53.4553 102.412 54.3013 102.487 55.156C102.499 55.3057 102.535 55.458 102.592 55.5977C102.765 56.0332 103.117 56.1667 103.55 55.9808C103.983 55.7949 104.307 55.4767 104.598 55.1186C105.234 54.3362 105.791 53.4977 106.3 52.6292C106.871 51.656 107.412 50.6652 107.87 49.6333C107.92 49.5222 107.963 49.4074 108.022 49.3001C108.238 48.8983 108.386 48.8335 108.838 48.9395C109.166 49.0169 109.486 49.1204 109.763 49.3188C110.08 49.5459 110.186 49.8255 110.067 50.196C109.985 50.4568 109.865 50.7051 109.753 50.9559C109.327 51.9018 108.94 52.8638 108.642 53.8583C108.502 54.325 108.36 54.7942 108.35 55.287C108.345 55.5316 108.343 55.7749 108.445 56.0058C108.578 56.3065 108.857 56.4762 109.18 56.425C109.545 56.3676 109.887 56.2329 110.199 56.0357C111.463 55.2359 112.454 54.1865 113.094 52.8226C113.6 51.747 114.11 50.6727 114.61 49.5946C114.739 49.3188 114.84 49.0306 114.953 48.7474C115.137 48.2882 115.209 47.8452 115.099 47.3286C114.906 46.414 115.282 45.6528 115.997 45.0726C116.401 44.7445 116.813 44.8443 117.062 45.301C117.212 45.5755 117.294 45.8637 117.207 46.1794C117.174 46.2967 117.141 46.414 117.113 46.5325C116.975 47.1115 116.992 47.1689 117.484 47.5208C117.757 47.7154 118.04 47.8951 118.321 48.0785C118.707 48.3306 119.04 48.6413 119.358 48.972C119.827 49.4574 120.038 50.0401 120.063 50.7076C120.089 51.3927 119.963 52.0415 119.681 52.6629C119.403 53.2731 119.125 53.8833 118.85 54.4959C118.738 54.7455 118.629 54.9975 118.609 55.2783C118.574 55.7587 118.825 56.0519 119.297 56.037C119.633 56.0257 119.972 55.982 120.274 55.8261C121.482 55.1984 122.542 54.4198 123.146 53.1321C123.422 52.5456 123.845 52.064 124.509 51.8731C124.752 51.8032 124.953 51.6672 125.115 51.4813C125.895 50.5841 126.665 49.677 127.252 48.6338C127.509 48.1759 127.701 47.7067 127.691 47.1652C127.685 46.7971 127.769 46.434 127.934 46.1033C128.166 45.6366 128.524 45.3297 129.075 45.3184C129.559 45.3084 129.876 45.6291 129.873 46.117C129.873 46.1782 129.868 46.2393 129.853 46.298C129.619 47.235 129.877 48.111 130.184 48.9795C130.437 49.6982 130.697 50.4144 130.953 51.1331C131.272 52.0315 131.454 52.9537 131.42 53.912C131.414 54.0941 131.417 54.2788 131.433 54.4597C131.46 54.7592 131.671 54.8703 131.956 54.7268C132.477 54.4622 132.944 54.1166 133.313 53.6624C133.62 53.2843 133.892 52.8788 134.177 52.4832C134.283 52.3348 134.374 52.175 134.484 52.0303C134.562 51.9267 134.677 51.8831 134.806 51.9355C134.929 51.9866 134.993 52.0864 134.999 52.2187C135.01 52.472 134.908 52.6979 134.808 52.9175C134.179 54.3063 133.234 55.3844 131.755 55.8885C131.298 56.0444 130.974 56.2815 130.712 56.697C130.206 57.5031 129.45 58.0072 128.531 58.2568C127.631 58.5013 126.716 58.5063 125.813 58.3192C124.666 58.0796 123.833 57.4145 123.356 56.3277C123.27 56.133 123.184 55.9371 123.084 55.75C123.037 55.6626 122.924 55.6352 122.846 55.6838C122.641 55.8136 122.44 55.9534 122.255 56.1093C121.716 56.5648 121.132 56.9466 120.497 57.2548C119.706 57.6391 118.873 57.7552 118.004 57.6828C116.949 57.5942 115.857 56.8567 115.948 55.3544C115.974 54.9227 116.048 54.5034 116.209 54.1066C116.448 53.5139 116.709 52.9287 116.975 52.3472C117.191 51.8743 117.395 51.3977 117.515 50.8923C117.714 50.0525 117.373 49.2989 116.624 48.8834C116.437 48.7798 116.264 48.8222 116.159 49.0069C116.099 49.1117 116.053 49.2253 116.004 49.3376C115.394 50.7363 114.71 52.1014 113.91 53.4004C113.093 54.728 112.151 55.9646 110.844 56.8717C110.441 57.1512 110.022 57.402 109.559 57.563C109.216 57.6828 108.859 57.7926 108.501 57.8325C107.206 57.9773 106.387 57.3671 106.139 56.0943C106.079 55.7949 106.054 55.4929 106 55.0974ZM93.2256 50.3595C93.0759 50.5018 92.9973 50.5504 92.9524 50.6215C92.2848 51.6834 91.8169 52.8289 91.5648 54.058C91.4862 54.446 91.47 54.8416 91.5149 55.2346C91.6047 56.0232 92.1201 56.3427 92.8663 56.0706C93.0073 56.0195 93.1508 55.9509 93.2656 55.8573C93.7098 55.4929 94.1602 55.1311 94.5757 54.7355C94.9201 54.4086 94.9214 54.2813 94.6007 53.8883C93.9518 53.0934 93.5388 52.2 93.3766 51.1893C93.3379 50.9522 93.2905 50.7164 93.2256 50.3595ZM127.94 49.531C127.912 49.536 127.871 49.531 127.857 49.5484C127.149 50.4556 126.604 51.4763 125.863 52.3597C125.676 52.5831 125.775 52.8189 125.944 53.0198C126.495 53.6761 127.131 54.2339 127.915 54.5958C128.724 54.9688 128.98 54.7966 128.914 53.9194C128.804 52.4633 128.456 51.052 128.053 49.6545C128.038 49.6071 127.979 49.5721 127.94 49.531ZM95.1734 50.6477C95.2071 51.2093 95.3307 51.9255 95.6064 52.6093C95.7349 52.9262 95.9683 52.9699 96.1417 52.7066C96.7856 51.7321 97.2622 50.6839 97.4432 49.521C97.4843 49.2527 97.4768 48.9745 97.4606 48.7024C97.4407 48.3556 97.3371 48.0224 96.9852 47.8789C96.6221 47.7304 96.3439 47.9413 96.0893 48.1759C95.4155 48.796 95.1572 49.5809 95.1734 50.6477ZM127.027 56.9004C127.013 56.9017 127.194 56.8892 127.374 56.863C127.651 56.8218 127.887 56.6933 128.1 56.5149C128.378 56.2803 128.361 56.0332 128.05 55.8785C127.969 55.8385 127.883 55.8098 127.798 55.7762C126.917 55.4243 126.134 54.9227 125.46 54.2501C125.375 54.1653 125.28 54.0904 125.183 54.0193C125.052 53.9232 124.866 54.0018 124.835 54.164C124.717 54.753 124.848 55.3057 125.102 55.8348C125.449 56.556 126.014 56.9416 127.027 56.9004Z" fill="white"/>
<path d="M27.7628 49.4936C28.0273 49.3314 28.1933 49.0718 28.3954 48.8572C28.9182 48.2982 29.4698 47.7729 30.1498 47.4073C30.9746 46.963 31.8381 46.7322 32.7876 46.9319C34.3499 47.26 35.3681 48.3668 35.5103 49.9553C35.5627 50.533 35.5378 51.1082 35.4043 51.6809C34.9039 53.8271 33.7197 55.5117 31.9454 56.7844C30.6489 57.7153 29.179 58.0147 27.6068 57.8475C27.1776 57.8014 26.7671 57.6828 26.4464 57.3696C26.3328 57.2586 26.2829 57.1138 26.3453 56.9541C26.3927 56.8293 26.4988 56.7532 26.6186 56.7345C27.069 56.6634 27.5232 56.616 27.9737 56.5461C30.5129 56.1518 32.6691 53.8371 33.0072 51.2879C33.0859 50.6902 32.9873 50.1312 32.7427 49.5984C32.4308 48.9171 31.8156 48.6326 31.0844 48.8085C30.5117 48.947 30.0001 49.2128 29.5596 49.6046C28.0947 50.9098 26.9879 52.4309 26.53 54.3861C26.0221 56.5511 25.4606 58.7023 24.9216 60.8597C24.6857 61.8068 24.4175 62.7426 24.0356 63.6435C23.8797 64.0104 23.7 64.3635 23.4317 64.6605C22.8814 65.2731 22.008 65.197 21.57 64.5045C21.4852 64.3697 21.454 64.22 21.4964 64.0678C21.5787 63.7745 21.6623 63.4813 21.7597 63.1931C22.4372 61.1716 23.1497 59.159 23.6239 57.0764C23.7923 56.334 23.9371 55.5865 24.0831 54.8391C24.1205 54.6444 23.9832 54.5334 23.816 54.6058C23.6488 54.6781 23.4891 54.7705 23.3219 54.8416C22.5545 55.171 21.7746 55.4031 20.9274 55.1673C20.4695 55.0387 20.1014 55.186 19.7819 55.5354C19.2878 56.0769 18.725 56.5473 18.1174 56.9578C17.2402 57.5518 16.2956 57.9211 15.2075 57.8737C14.2442 57.8325 13.5941 57.3896 13.2622 56.4899C13.0601 55.9421 12.9365 55.3744 12.9902 54.7879C13.1087 53.4965 13.4556 52.2761 14.1719 51.1768C14.4064 50.8175 14.6822 50.4955 14.9817 50.1898C15.5195 49.6421 16.1259 49.3027 16.9332 49.3937C17.3325 49.4387 17.3562 49.3813 17.5284 48.9845C17.6856 48.6214 17.8329 48.252 18.0225 47.9064C18.7076 46.6548 20.4582 46.1869 21.7921 46.7572C22.1415 46.9069 22.3998 47.1577 22.5832 47.4871C22.9014 48.0624 23.0499 48.6738 22.9788 49.3326C22.8864 50.1911 22.6306 51.0021 22.2575 51.7758C21.9668 52.3797 21.6461 52.9687 21.3429 53.5664C21.2344 53.781 21.3155 53.932 21.545 53.9469C22.5845 54.0156 23.4492 53.6337 24.1791 52.9125C24.3838 52.7104 24.4736 52.4571 24.516 52.1788C24.6171 51.5162 24.7319 50.8562 24.8242 50.1936C24.9652 49.1679 25.0913 48.1397 25.226 47.114C25.2497 46.9331 25.2735 46.7509 25.3234 46.5762C25.4644 46.0771 25.7414 45.8912 26.2704 45.9211C27.2637 45.976 27.9075 46.6411 27.8901 47.6493C27.8826 48.1035 27.7952 48.5565 27.7428 49.0094C27.7254 49.1579 27.6505 49.3052 27.7628 49.4936ZM17.2726 50.3545C16.4116 51.4663 15.6879 53.2569 15.5906 54.446C15.5706 54.6869 15.5644 54.9314 15.5856 55.1723C15.6617 56.0532 16.237 56.3851 17.0493 56.0245C17.1316 55.9883 17.2165 55.9471 17.2888 55.8935C17.7755 55.5316 18.2571 55.1635 18.6726 54.7193C18.9721 54.3986 18.9958 54.2689 18.7151 53.9382C17.919 53.0036 17.5197 51.9143 17.3712 50.7139C17.36 50.6278 17.325 50.543 17.2726 50.3545ZM19.2454 50.5904C19.2691 51.1793 19.4038 51.8943 19.6696 52.5806C19.722 52.7166 19.7919 52.895 19.9753 52.8688C20.0764 52.8551 20.1912 52.754 20.2498 52.6617C20.8625 51.7047 21.3317 50.6865 21.5164 49.556C21.58 49.1654 21.595 48.7649 21.4764 48.3793C21.313 47.849 20.8575 47.6843 20.4046 47.9887C20.2798 48.0723 20.1662 48.1771 20.0589 48.2845C19.4637 48.8809 19.2391 49.6183 19.2454 50.5904Z" fill="white"/>
<path d="M9.16822 35.8702C11.1023 35.7841 12.9078 36.2482 14.5961 37.1866C15.3785 37.6208 16.0548 38.1773 16.6013 38.8898C17.1379 39.5886 17.4086 40.3809 17.466 41.2569C17.5609 42.7243 17.1803 44.0157 16.1583 45.115C15.1102 46.2418 13.8013 46.9281 12.3875 47.4472C11.1235 47.9113 9.80834 48.1684 8.47694 48.3393C7.75323 48.4317 7.02951 48.5327 6.2958 48.5452C5.72182 48.5539 5.63822 48.6288 5.47351 49.204C5.03678 50.7263 4.61753 52.2536 4.19078 53.7784C3.7316 55.4205 3.26367 57.0614 2.81821 58.7072C2.63604 59.381 2.43265 59.6268 1.62907 59.3748C1.36953 59.2937 1.10749 59.1976 0.87166 59.0616C0.149189 58.6448 -0.122832 58.0334 0.0506113 57.2111C0.139204 56.7943 0.258995 56.3838 0.392508 55.9795C1.36828 53.0298 2.33033 50.075 3.33979 47.1377C4.34052 44.2279 5.45479 41.3604 6.6926 38.5429C6.78993 38.3196 6.87852 38.0925 6.96712 37.8666C7.01204 37.7518 7.03949 37.6283 6.95838 37.521C6.87104 37.4049 6.73752 37.4199 6.62397 37.4598C6.25213 37.5934 5.87655 37.7231 5.51718 37.8853C5.04552 38.0987 4.59382 38.3558 4.1234 38.5704C3.4446 38.8811 2.70342 38.5417 2.44388 37.8192C2.38523 37.6557 2.4314 37.511 2.56241 37.4137C2.68345 37.3251 2.82321 37.2577 2.96296 37.2003C4.51895 36.5589 6.1286 36.106 7.7969 35.8789C8.24735 35.819 8.71153 35.8702 9.16822 35.8702ZM14.8145 41.3093C14.8744 39.6123 14.2043 38.6764 12.9939 37.919C12.1492 37.39 11.1971 37.1903 10.2288 37.0506C9.91939 37.0056 9.69853 37.1516 9.56626 37.4274C9.3167 37.9477 9.05342 38.4643 8.82882 38.9959C7.87925 41.2406 7.15553 43.564 6.43306 45.8874C6.33324 46.2069 6.23716 46.5275 6.15855 46.8532C6.08493 47.1614 6.21345 47.3373 6.51542 47.3461C6.72754 47.3523 6.94341 47.3498 7.15054 47.3124C8.01776 47.1552 8.88622 46.9867 9.72349 46.7085C10.9438 46.3029 12.108 45.7726 13.0813 44.9141C14.1781 43.9459 14.8781 42.7729 14.8145 41.3093Z" fill="white"/>
<path d="M87.0316 35.839C88.9919 35.7816 90.7762 35.9762 92.5655 36.1447C93.7148 36.2532 94.864 36.4179 96.0257 36.3992C96.2964 36.3955 96.5685 36.4416 96.838 36.4778C96.9515 36.4941 97.0014 36.6837 96.9278 36.7761C96.692 37.068 96.3838 37.2702 96.0456 37.4074C95.5952 37.5909 95.1372 37.768 94.6668 37.8853C93.6911 38.1287 92.6991 38.2921 91.6871 38.2921C91.1992 38.2921 90.7113 38.3208 90.2247 38.3071C89.6894 38.2921 89.3637 38.5417 89.1928 39.0321C89.1429 39.1755 89.0842 39.3166 89.0268 39.4576C88.0236 41.9469 87.1851 44.4924 86.4177 47.0616C85.7114 49.4249 85.0588 51.8044 84.3825 54.1777C83.9558 55.6763 83.6438 57.1949 83.6463 58.7634C83.6463 58.8844 83.6389 59.0079 83.6139 59.1265C83.5715 59.3274 83.4305 59.4334 83.2321 59.4609C82.2151 59.6019 81.1196 58.9031 80.8039 57.9161C80.6217 57.3484 80.6442 56.7769 80.7664 56.2004C81.0696 54.7667 81.5014 53.3704 81.9893 51.9916C82.975 49.2053 84.0194 46.4414 85.1761 43.7213C85.7364 42.4036 86.2929 41.0847 86.8494 39.7658C86.968 39.485 87.0915 39.2055 87.1938 38.9198C87.3061 38.6053 87.2025 38.4344 86.8719 38.4394C85.684 38.4568 84.4936 38.4481 83.3107 38.5392C82.0991 38.6328 80.8812 38.7189 79.6834 38.9547C79.5673 38.9772 79.44 38.9672 79.3227 38.9447C79.1493 38.9123 79.0732 38.7837 79.0719 38.6153C79.0707 38.3632 79.1755 38.1424 79.2978 37.9303C79.6297 37.3538 80.1213 36.947 80.724 36.6949C81.1994 36.4965 81.6935 36.3256 82.1964 36.2096C83.1772 35.985 84.1729 35.8489 85.1824 35.839C85.8499 35.8327 86.52 35.839 87.0316 35.839Z" fill="white"/>
<path d="M66.0662 57.8475C65.7917 57.8475 65.5172 57.8637 65.2439 57.8437C64.907 57.8188 64.5838 57.7215 64.2894 57.5518C64.0997 57.4419 63.9362 57.3022 63.96 57.0501C63.9762 56.8655 64.1396 56.7432 64.4341 56.702C64.8259 56.6471 65.2215 56.6184 65.6108 56.5473C67.5411 56.1954 68.9162 55.0736 69.8932 53.4166C70.416 52.5294 70.7005 51.5786 70.6082 50.5354C70.5807 50.2297 70.5321 49.9315 70.4048 49.6495C70.0804 48.9295 69.4527 48.6238 68.6866 48.8235C67.767 49.063 67.0507 49.6308 66.4231 50.3083C65.758 51.0258 65.2052 51.8306 64.7336 52.6904C64.5701 52.9873 64.4628 53.3005 64.3667 53.6225C63.8264 55.4355 63.4396 57.286 62.9854 59.1202C62.7434 60.096 62.4888 61.0693 62.218 62.0388C62.0783 62.5367 61.9023 63.0258 61.7252 63.5124C61.5779 63.9155 61.3695 64.2911 61.0975 64.623C60.5759 65.2581 59.72 65.2257 59.2246 64.5618C59.1073 64.4046 59.0724 64.2287 59.1248 64.0428C59.1996 63.7795 59.282 63.5174 59.3681 63.2566C59.9832 61.4049 60.6121 59.5594 61.0975 57.6665C61.6752 55.418 62.0246 53.1296 62.354 50.8361C62.51 49.7506 62.6336 48.66 62.7758 47.5732C62.807 47.3311 62.8656 47.0928 62.8931 46.8507C62.9842 46.0521 63.3623 45.7726 64.2407 45.9748C65.0281 46.1557 65.491 46.7234 65.5184 47.5445C65.5297 47.8764 65.476 48.212 65.4461 48.5452C65.4274 48.7573 65.3912 48.967 65.3774 49.1791C65.375 49.224 65.4236 49.2976 65.466 49.3138C65.511 49.3301 65.5946 49.3126 65.627 49.2764C65.793 49.098 65.9377 48.8996 66.1074 48.7261C66.9746 47.839 67.9454 47.1315 69.2094 46.9131C70.6656 46.6623 72.123 47.3885 72.7831 48.7211C73.1449 49.4523 73.2934 50.2347 73.1537 51.0333C72.6808 53.7397 71.3182 55.8423 68.8738 57.1824C68.0015 57.6628 67.0669 57.9036 66.0662 57.8475Z" fill="white"/>
<path d="M48.6483 33.7976C47.9633 33.6192 47.9832 33.5917 47.096 33.6654C46.7517 33.0914 46.2313 32.1244 45.9456 31.5192C44.9448 29.4079 44.3434 27.1831 44.0527 24.8647C43.9267 23.8615 43.8992 22.8608 43.8942 21.855C43.8855 19.8261 44.2249 17.8509 44.7914 15.9093C45.6411 13.0007 47.0237 10.3654 48.9827 8.05947C52.5501 3.86066 57.026 1.21285 62.495 0.323173C63.6991 0.12727 64.9095 -0.0212176 66.1323 0.00249041C70.0467 0.0786056 73.7214 1.03566 77.1304 2.9897C78.755 3.92055 80.2374 5.04481 81.5688 6.34625C82.9438 7.69137 84.1217 9.20993 85.1175 10.8658C86.5686 13.2765 87.4945 15.8819 87.935 18.6445C88.5763 22.6723 88.1758 26.6054 86.6423 30.4036C86.6198 30.4598 86.5998 30.5184 86.5749 30.5733C86.4875 30.7618 86.4539 31.0799 86.233 31.065C85.9098 31.0425 86.0084 30.6956 85.9722 30.4773C85.5567 27.958 84.516 25.7095 83.0137 23.6631C82.6518 23.1715 82.255 22.7098 81.8245 22.2755C81.4964 21.9449 81.4876 21.875 81.7397 21.4882C81.998 21.0939 82.1565 20.6871 82.159 20.208C82.1627 19.5915 81.9668 19.0725 81.5076 18.6582C81.3267 18.4947 81.1445 18.33 80.9461 18.1915C79.4874 17.1783 77.9352 16.346 76.2507 15.7621C75.5544 15.52 74.8407 15.3703 74.1169 15.2655C72.7032 15.0608 71.4779 15.5537 70.3436 16.3411C70.144 16.4796 69.9668 16.6518 69.7659 16.789C69.4989 16.9724 69.3279 16.935 69.1545 16.663C68.86 16.2001 68.5892 15.7221 68.281 15.268C67.5136 14.1375 66.5478 13.2191 65.2876 12.6563C64.6487 12.3706 63.9961 12.1036 63.3273 11.9002C60.7419 11.1153 58.1565 11.1615 55.5935 12.0125C55.1044 12.1747 54.6427 12.4192 54.1673 12.6251C52.756 13.2366 52.7298 15.3715 53.8603 16.1402C54.0275 16.255 54.2521 16.3273 54.2983 16.6131C54.0724 16.8502 53.7443 16.9512 53.4473 17.091C51.5469 17.9894 49.9061 19.2334 48.4873 20.7782C48.239 21.049 47.9969 21.321 47.8285 21.6516C47.4242 22.449 47.539 23.3574 48.133 24.0399C48.6558 24.6426 49.6378 24.9433 50.3865 24.5253C51.1863 24.0786 51.8077 24.2308 52.4678 24.7125C52.7086 24.8884 52.7386 24.9957 52.5102 25.2078C51.9961 25.6858 51.497 26.1724 51.0877 26.7501C49.9298 28.3835 49.3608 30.2315 49.0513 32.1805" fill="url(#paint0_linear_175_1975)"/>
<defs>
<linearGradient id="paint0_linear_175_1975" x1="66.0601" y1="33.7976" x2="66.0601" y2="-0.000779626" gradientUnits="userSpaceOnUse">
<stop offset="0.3721" stop-color="#FCE202"/>
<stop offset="1" stop-color="#EF7E03"/>
</linearGradient>
</defs>
</svg>
